HIERARCHY
ROOT root
{
	OFFSET 0.000000 0.000000 0.000000
	CHANNELS 6 Xposition Yposition Zposition Zrotation Yrotation Xrotation
	JOINT lhip
	{
		OFFSET 0.058581 -0.082280 -0.017664
		CHANNELS 3 Zrotation Yrotation Xrotation
		JOINT lknee
		{
			OFFSET 0.043451 -0.386469 0.008037
			CHANNELS 3 Zrotation Yrotation Xrotation
			JOINT lankle
			{
				OFFSET -0.014790 -0.426874 -0.037428
				CHANNELS 3 Zrotation Yrotation Xrotation
				JOINT ltoe
				{
					OFFSET 0.041054 -0.060286 0.122042
					CHANNELS 3 Zrotation Yrotation Xrotation
					End Site
					{
						OFFSET 0.000000 0.000000 0.000000
					}
				}
			}
		}
	}
	JOINT rhip
	{
		OFFSET -0.060310 -0.090513 -0.013543
		CHANNELS 3 Zrotation Yrotation Xrotation
		JOINT rknee
		{
			OFFSET -0.043257 -0.383688 -0.004843
			CHANNELS 3 Zrotation Yrotation Xrotation
			JOINT rankle
			{
				OFFSET 0.019056 -0.420046 -0.034562
				CHANNELS 3 Zrotation Yrotation Xrotation
				JOINT rtoe
				{
					OFFSET -0.034840 -0.062106 0.130323
					CHANNELS 3 Zrotation Yrotation Xrotation
					End Site
					{
						OFFSET 0.000000 0.000000 0.000000
					}
				}
			}
		}
	}
	JOINT lowerback
	{
		OFFSET 0.004439 0.124404 -0.038385
		CHANNELS 3 Zrotation Yrotation Xrotation
		JOINT upperback
		{
			OFFSET 0.004488 0.137956 0.026820
			CHANNELS 3 Zrotation Yrotation Xrotation
			JOINT chest
			{
				OFFSET -0.002265 0.056032 0.002855
				CHANNELS 3 Zrotation Yrotation Xrotation
				JOINT lowerneck
				{
					OFFSET -0.013390 0.211636 -0.033468
					CHANNELS 3 Zrotation Yrotation Xrotation
					JOINT upperneck
					{
						OFFSET 0.010113 0.088937 0.050410
						CHANNELS 3 Zrotation Yrotation Xrotation
						End Site
						{
							OFFSET 0.000000 0.000000 0.000000
						}
					}
				}
				JOINT lclavicle
				{
					OFFSET 0.071702 0.114000 -0.018898
					CHANNELS 3 Zrotation Yrotation Xrotation
					JOINT lshoulder
					{
						OFFSET 0.122921 0.045205 -0.019046
						CHANNELS 3 Zrotation Yrotation Xrotation
						JOINT lelbow
						{
							OFFSET 0.255332 -0.015649 -0.022946
							CHANNELS 3 Zrotation Yrotation Xrotation
							JOINT lwrist
							{
								OFFSET 0.265709 0.012698 -0.007375
								CHANNELS 3 Zrotation Yrotation Xrotation
								End Site
								{
									OFFSET 0.000000 0.000000 0.000000
								}
							}
						}
					}
				}
				JOINT rclavicle
				{
					OFFSET -0.082954 0.112472 -0.023707
					CHANNELS 3 Zrotation Yrotation Xrotation
					JOINT rshoulder
					{
						OFFSET -0.113228 0.046853 -0.008472
						CHANNELS 3 Zrotation Yrotation Xrotation
						JOINT relbow
						{
							OFFSET -0.260127 -0.014369 -0.031269
							CHANNELS 3 Zrotation Yrotation Xrotation
							JOINT rwrist
							{
								OFFSET -0.269108 0.006794 -0.006027
								CHANNELS 3 Zrotation Yrotation Xrotation
								End Site
								{
									OFFSET 0.000000 0.000000 0.000000
								}
							}
						}
					}
				}
			}
		}
	}
}
MOTION
Frames: 13
Frame Time: 0.033333
0.274017 0.368149 0.981376 -38.781339 -0.001022 91.494586 -0.334852 2.425336 -1.657046 -5.396349 -8.537447 -4.712629 4.679395 10.852722 -12.078983 0.000000 -0.000000 0.000000 -12.649038 -5.856238 -15.688769 4.137999 -2.228466 24.004251 5.467143 -5.333202 -14.212402 0.000000 -0.000000 0.000000 -2.174464 0.797838 9.179343 1.100117 -1.118494 1.696863 0.160152 0.289924 -6.988060 3.115721 7.039975 2.711736 3.142242 8.708653 8.538132 -25.673242 -1.266560 -2.102016 -48.477603 -10.066753 11.206379 15.085945 -27.011624 -9.268838 13.918115 -6.629304 0.290139 25.888474 2.174125 1.895517 48.204843 8.515366 11.374182 -8.206599 21.036386 -6.281771 -5.214561 5.879929 5.038039 
0.273700 0.369910 0.981838 -39.846961 0.220096 91.488032 -0.113085 2.895282 -1.628477 -5.266071 -8.184217 -4.645982 4.528206 11.251697 -12.055313 0.000000 -0.000000 0.000000 -12.095502 -5.182599 -16.376345 3.833035 -2.075265 24.572327 4.929824 -5.487869 -14.565637 0.000000 -0.000000 0.000000 -1.742879 0.772219 9.997591 0.810938 -0.524570 0.729031 -0.144359 0.863657 -6.411310 3.247634 7.245430 1.401875 3.623641 8.341731 8.434114 -25.930625 -0.456065 -2.658193 -48.279892 -8.945716 11.360884 15.404225 -26.371868 -9.330862 12.687194 -6.487430 0.192367 26.230512 2.693923 1.121987 47.965915 9.136188 11.920540 -7.970659 22.700062 -5.719355 -3.937118 6.739412 4.390891 
0.273056 0.370658 0.982087 -40.529734 0.253844 91.565434 -0.147295 2.833401 -1.559054 -5.099184 -7.843575 -4.705661 4.443161 11.520604 -12.238768 0.000000 -0.000000 0.000000 -11.887415 -4.773372 -16.787087 3.897066 -1.778300 24.779657 4.907932 -5.329266 -14.608539 0.000000 -0.000000 0.000000 -1.432958 0.838422 10.035966 0.613320 -0.283639 0.628334 -0.534079 1.337820 -6.009824 3.313540 7.568492 -0.167248 4.130739 7.667517 8.553286 -26.186406 0.315875 -3.081901 -47.920039 -8.056636 10.964060 15.413127 -25.720177 -10.050059 10.966794 -6.290978 0.135264 26.699665 3.331596 0.568436 47.620123 9.971037 12.438950 -7.382757 24.226925 -5.129566 -2.379846 6.670627 4.945783 
0.272157 0.371978 0.981845 -41.780517 0.372604 91.785007 -0.003079 2.952940 -1.772577 -5.065342 -7.377238 -4.550137 4.542204 12.210562 -12.240064 0.000000 -0.000000 0.000000 -11.450029 -4.288420 -17.716707 4.131667 -0.967956 25.127765 5.123557 -5.074707 -14.825256 0.000000 -0.000000 0.000000 -0.860751 1.045118 10.542985 0.284852 0.273387 -0.239671 -0.992307 2.074479 -5.263495 3.008663 7.430522 -2.010002 4.461343 6.768055 8.592979 -26.113735 1.468677 -3.570624 -48.021456 -6.652281 10.499967 15.491869 -23.596541 -10.921037 8.821926 -5.969399 -1.038588 26.592934 4.079661 -0.168685 47.864142 11.192285 13.361059 -6.698690 26.258820 -3.983680 -0.735490 6.977688 4.603966 
0.271716 0.372165 0.981803 -42.181379 0.380286 91.804870 -0.010767 2.929802 -1.760142 -5.029782 -7.255311 -4.488700 4.558050 12.437319 -12.380807 0.000000 -0.000000 0.000000 -11.393418 -4.228777 -17.913918 4.161677 -0.861348 25.219966 5.208269 -4.995886 -14.891006 0.000000 -0.000000 0.000000 -0.714706 1.156390 10.663094 0.198160 0.429089 -0.326866 -1.081022 2.283910 -5.263270 2.941509 7.379009 -1.988058 4.410857 6.714369 8.411701 -26.013354 1.744144 -3.544523 -48.102060 -6.157117 10.320830 15.622474 -22.763988 -11.249569 8.060739 -5.850391 -1.304908 26.427050 4.413367 -0.153102 48.037789 11.499071 13.592721 -6.648502 26.825093 -3.740480 -0.528059 7.111256 4.495999 
0.270911 0.372693 0.981927 -42.913367 0.366682 91.819581 -0.049311 2.827162 -1.680434 -4.936164 -6.869190 -4.482454 4.671795 12.756612 -12.555588 0.000000 -0.000000 0.000000 -11.342114 -4.082060 -18.193449 4.389488 -0.470981 25.259140 5.457999 -4.867319 -14.815376 0.000000 -0.000000 0.000000 -0.605020 1.435917 10.816829 0.144028 0.729937 -0.399964 -1.100841 2.639598 -5.268861 2.825596 7.222939 -1.779093 4.307969 6.268593 8.331829 -25.875468 2.100204 -3.333625 -48.301152 -5.374012 9.841422 15.766123 -20.663532 -11.903410 6.156305 -5.324023 -1.867866 26.183423 5.032711 -0.045881 48.194336 12.088664 13.988604 -6.800730 27.646402 -3.353791 -0.295957 7.061029 4.816024 
0.269986 0.373099 0.982170 -43.476371 0.368789 91.960223 -0.065428 3.009100 -1.700555 -4.804230 -6.627249 -4.601763 4.698902 13.009185 -12.389748 0.000000 -0.000000 0.000000 -11.268256 -4.083259 -18.499361 4.525138 -0.271364 25.296166 5.717876 -4.330618 -14.798826 0.000000 -0.000000 0.000000 -0.471974 1.627828 10.575499 0.140584 0.953817 -0.100175 -1.124133 2.904211 -5.364874 2.774392 7.081626 -1.824151 3.938187 6.113826 8.327283 -25.536127 2.273882 -3.350547 -48.813793 -4.465164 9.766485 16.119531 -18.409741 -12.348143 6.049036 -5.253660 -1.974107 26.096562 5.596964 0.149802 48.185820 12.875725 14.094860 -6.614856 27.927407 -3.077533 -0.770499 7.421637 5.415607 
0.269229 0.373785 0.982598 -43.778522 0.416291 92.012452 0.045175 3.082845 -1.790608 -4.832555 -6.500819 -4.424801 4.690020 13.194455 -12.471128 0.000000 -0.000000 0.000000 -11.116845 -4.019537 -18.682024 4.570835 -0.140917 25.340760 5.814829 -4.270749 -14.977672 0.000000 -0.000000 0.000000 -0.321245 1.739268 10.640362 0.194728 1.001783 -0.123257 -1.105479 3.034821 -5.328595 2.692241 6.845605 -1.452363 3.801995 5.848534 8.085627 -25.352456 2.383366 -3.339200 -49.088860 -3.526005 9.626284 16.323319 -16.688413 -12.624503 5.437409 -4.998636 -1.768520 26.058310 6.181173 0.244197 48.044086 13.275982 14.242566 -6.266556 28.800568 -2.407342 -0.100692 7.807062 5.976327 
0.268093 0.374067 0.983085 -43.859200 0.406725 92.072860 0.116664 3.180623 -1.820932 -4.854012 -6.526888 -4.334705 4.564196 13.195181 -12.578596 0.000000 -0.000000 0.000000 -11.095951 -4.033685 -18.630233 4.602432 -0.135622 25.209746 5.855046 -4.231323 -14.932093 0.000000 -0.000000 0.000000 -0.305344 1.747227 10.658066 0.257062 1.001890 -0.261412 -0.988935 3.110867 -5.330629 2.569035 6.762708 -1.257954 3.584899 5.685341 7.970265 -25.162008 2.490378 -3.154990 -49.357840 -2.981274 9.632734 16.244822 -15.017897 -12.352658 5.126509 -4.735353 -1.850949 25.984270 6.413430 0.223187 48.055241 13.582817 14.334654 -5.907013 28.622950 -1.685600 0.232425 7.531742 6.098958 
0.267000 0.374382 0.983805 -43.716491 0.361874 92.136998 0.147150 3.273412 -1.943879 -4.875159 -6.526520 -4.116470 4.480442 13.116448 -12.704794 0.000000 -0.000000 0.000000 -11.113656 -3.840613 -18.491250 4.561233 -0.232464 25.059618 5.744525 -4.545907 -14.796462 0.000000 -0.000000 0.000000 -0.303777 1.656491 10.669101 0.355111 0.930550 -0.347573 -0.962557 3.112669 -5.188290 2.638030 5.937264 -1.295624 3.507328 4.735882 7.812937 -25.184200 2.590377 -3.220070 -49.304342 -2.705587 9.728699 15.935767 -13.933412 -12.017820 4.610022 -4.415405 -1.369126 26.031846 6.401722 -0.035681 48.131726 13.664140 14.385494 -5.692382 28.602360 -1.380418 0.724404 7.300351 6.369800 
0.265678 0.374494 0.984434 -43.440265 0.371842 92.134457 0.218643 3.357694 -1.903621 -4.785507 -6.550895 -4.140604 4.420523 13.027599 -12.515626 0.000000 -0.000000 0.000000 -11.058795 -3.837284 -18.211467 4.508908 -0.413728 24.867870 5.621770 -4.781916 -15.058810 0.000000 -0.000000 0.000000 -0.237689 1.640634 10.669672 0.420119 0.881082 -0.251759 -0.900333 2.904193 -5.151732 2.406174 5.264219 -1.358255 3.273787 3.659083 7.028267 -25.214704 2.488782 -3.243216 -49.311695 -2.575353 9.700018 15.658236 -13.500558 -11.911685 4.417260 -4.165113 -1.215345 25.979948 6.367455 -0.189744 48.338759 13.351208 14.321123 -5.826655 28.621860 -1.517028 0.080186 7.102800 6.381273 
0.264366 0.374616 0.985110 -43.030150 0.332893 92.172729 0.239464 3.320492 -1.895166 -4.720356 -6.658874 -4.182011 4.214341 12.854070 -12.459339 0.000000 -0.000000 0.000000 -11.071156 -3.865028 -17.892797 4.402283 -0.677051 24.603541 5.508110 -5.121161 -15.112657 0.000000 -0.000000 0.000000 -0.230422 1.625827 10.319827 0.574294 0.753134 0.120662 -0.847208 2.662684 -5.072496 2.119413 3.799113 -0.682534 2.976372 1.941023 5.295656 -25.233325 2.256644 -3.389484 -49.511895 -2.637581 9.798227 15.342114 -13.562990 -12.107841 3.976661 -3.750958 -1.295286 25.761308 6.460278 -0.307072 48.665193 12.811974 14.087062 -5.970734 28.238737 -2.062391 0.025647 6.911723 6.210228 
0.263027 0.374277 0.986366 -42.407543 0.348974 92.285556 0.254061 3.220104 -2.049875 -4.560979 -6.899399 -4.148275 3.911823 12.722010 -12.141654 0.000000 -0.000000 0.000000 -10.935231 -4.141433 -17.510923 4.462122 -0.496609 24.212898 5.332852 -5.818285 -15.012857 0.000000 -0.000000 0.000000 -0.038071 1.496465 10.534374 0.629840 0.667644 -1.139240 -0.787174 2.262870 -3.094760 1.280082 1.518759 -3.624656 0.881378 0.127753 4.962595 -26.134504 2.580607 -4.963884 -48.608636 -3.227220 10.378944 14.649517 -14.545761 -11.505774 4.090594 -4.276891 -0.652703 25.980812 5.978918 -2.107327 48.618719 11.998290 14.963375 -5.823639 27.739903 -2.001476 0.356133 6.514645 6.557974 
